<svg width="232" height="233" viewBox="0 0 232 233" fill="none" xmlns="http://www.w3.org/2000/svg">
<path d="M103.318 118.381C102.727 115.032 103.495 111.585 105.452 108.799C107.41 106.012 110.396 104.114 113.754 103.522C117.113 102.93 120.568 103.692 123.36 105.641C126.152 107.59 128.053 110.566 128.643 113.915C129.234 117.264 128.466 120.71 126.509 123.497C124.551 126.283 121.565 128.181 118.207 128.774C114.848 129.366 111.393 128.603 108.601 126.654C105.809 124.705 103.908 121.729 103.318 118.381Z" fill="white" fill-opacity="0.25"/>
<path d="M87.7003 113.403C88.3302 107.294 90.941 101.555 95.1365 97.0558C99.3321 92.5569 104.883 89.5443 110.948 88.4749C117.012 87.4056 123.259 88.3379 128.74 91.1305C134.222 93.9231 138.638 98.4234 141.319 103.949L212.991 91.311C200.145 41.1488 150.474 8.60271 98.4858 17.7696C46.4875 26.9383 10.9433 74.5102 16.0291 126.041L87.7003 113.403ZM143.991 119.099C143.361 125.209 140.75 130.948 136.555 135.447C132.359 139.946 126.808 142.958 120.743 144.028C114.679 145.097 108.432 144.165 102.951 141.372C97.4695 138.58 93.0531 134.079 90.3718 128.554L18.7006 141.192C31.546 191.354 81.2273 223.898 133.215 214.731C185.204 205.564 220.758 157.991 215.662 106.462L143.991 119.099Z" fill="url(#paint0_radial_2_19)" fill-opacity="0.25"/>
<defs>
<radialGradient id="paint0_radial_2_19" cx="0" cy="0" r="1" gradientUnits="userSpaceOnUse" gradientTransform="translate(115.846 116.251) rotate(80) scale(100)">
<stop offset="0.703905" stop-color="#999999"/>
<stop offset="0.89913" stop-color="white"/>
</radialGradient>
</defs>
</svg>
